<svg xmlns="http://www.w3.org/2000/svg" height="24" viewBox="0 -960 960 960" width="24"><path d="M280-280q-83.333 0-141.667-58.28Q80-396.561 80-479.819q0-83.258 58.333-141.72Q196.667-680 280-680h400q83.333 0 141.667 58.28Q880-563.439 880-480.181q0 83.258-58.333 141.72Q763.333-280 680-280H280Zm0-40h400q66 0 113-47t47-113q0-66-47-113t-113-47H280q-66 0-113 47t-47 113q0 66 47 113t113 47Zm399.909-60q41.63 0 70.86-29.14Q780-438.28 780-479.91q0-41.629-29.14-70.859Q721.719-580 680.091-580q-41.63 0-70.86 29.14Q580-521.719 580-480.09t29.14 70.859Q638.281-380 679.909-380ZM480-480Z"/></svg>